<svg width="40" height="41" viewBox="0 0 40 41" fill="none" xmlns="http://www.w3.org/2000/svg">
<path d="M15.3333 7.479H8.66667C7.74619 7.479 7 8.2252 7 9.14567V15.8123C7 16.7328 7.74619 17.479 8.66667 17.479H15.3333C16.2538 17.479 17 16.7328 17 15.8123V9.14567C17 8.2252 16.2538 7.479 15.3333 7.479Z" stroke="#F66035" stroke-width="2" stroke-linecap="round" stroke-linejoin="round"/>
<path d="M15.3333 24.146H8.66667C7.74619 24.146 7 24.8922 7 25.8127V32.4793C7 33.3998 7.74619 34.146 8.66667 34.146H15.3333C16.2538 34.146 17 33.3998 17 32.4793V25.8127C17 24.8922 16.2538 24.146 15.3333 24.146Z" stroke="#F66035" stroke-width="2" stroke-linecap="round" stroke-linejoin="round"/>
<path d="M31.9974 24.146H25.3307C24.4103 24.146 23.6641 24.8922 23.6641 25.8127V32.4793C23.6641 33.3998 24.4103 34.146 25.3307 34.146H31.9974C32.9179 34.146 33.6641 33.3998 33.6641 32.4793V25.8127C33.6641 24.8922 32.9179 24.146 31.9974 24.146Z" stroke="#F66035" stroke-width="2" stroke-linecap="round" stroke-linejoin="round"/>
<path d="M23.6641 12.479H33.6641" stroke="#F66035" stroke-width="2" stroke-linecap="round" stroke-linejoin="round"/>
<path d="M28.6641 7.479V17.479" stroke="#F66035" stroke-width="2" stroke-linecap="round" stroke-linejoin="round"/>
</svg>
