<svg width="40" height="41" viewBox="0 0 40 41" fill="none" xmlns="http://www.w3.org/2000/svg">
<path d="M10.3333 35.4792C12.1743 35.4792 13.6667 33.9868 13.6667 32.1458C13.6667 30.3049 12.1743 28.8125 10.3333 28.8125C8.49238 28.8125 7 30.3049 7 32.1458C7 33.9868 8.49238 35.4792 10.3333 35.4792Z" stroke="#F66035" stroke-width="2" stroke-linecap="round" stroke-linejoin="round"/>
<path d="M28.6693 35.4792C30.5102 35.4792 32.0026 33.9868 32.0026 32.1458C32.0026 30.3049 30.5102 28.8125 28.6693 28.8125C26.8283 28.8125 25.3359 30.3049 25.3359 32.1458C25.3359 33.9868 26.8283 35.4792 28.6693 35.4792Z" stroke="#F66035" stroke-width="2.75" stroke-linecap="round" stroke-linejoin="round"/>
<path d="M28.6667 28.8123H10.3333V5.479H7" stroke="#F66035" stroke-width="2" stroke-linecap="round" stroke-linejoin="round"/>
<path d="M10.3359 8.8125L33.6693 10.4792L32.0026 22.1458H10.3359" stroke="#F66035" stroke-width="2" stroke-linecap="round" stroke-linejoin="round"/>
</svg>
