<svg width="41" height="41" viewBox="0 0 41 41" fill="none" xmlns="http://www.w3.org/2000/svg">
<path d="M10.3685 35.4792C12.2094 35.4792 13.7018 33.9868 13.7018 32.1458C13.7018 30.3049 12.2094 28.8125 10.3685 28.8125C8.52754 28.8125 7.03516 30.3049 7.03516 32.1458C7.03516 33.9868 8.52754 35.4792 10.3685 35.4792Z" stroke="#F66035" stroke-width="2" stroke-linecap="round" stroke-linejoin="round"/>
<path d="M30.3685 12.1457C32.2094 12.1457 33.7018 10.6533 33.7018 8.81234C33.7018 6.97139 32.2094 5.479 30.3685 5.479C28.5275 5.479 27.0352 6.97139 27.0352 8.81234C27.0352 10.6533 28.5275 12.1457 30.3685 12.1457Z" stroke="#F66035" stroke-width="2" stroke-linecap="round" stroke-linejoin="round"/>
<path d="M20.3659 32.1458H27.8659C29.413 32.1458 30.8967 31.5313 31.9907 30.4373C33.0846 29.3433 33.6992 27.8596 33.6992 26.3125C33.6992 24.7654 33.0846 23.2817 31.9907 22.1877C30.8967 21.0938 29.413 20.4792 27.8659 20.4792H14.5326C12.9855 20.4792 11.5017 19.8646 10.4078 18.7706C9.3138 17.6767 8.69922 16.1929 8.69922 14.6458C8.69922 13.0987 9.3138 11.615 10.4078 10.521C11.5017 9.42708 12.9855 8.8125 14.5326 8.8125H20.3659" stroke="#F66035" stroke-width="2" stroke-linecap="round" stroke-linejoin="round"/>
</svg>
