<svg width="41" height="41" viewBox="0 0 41 41" fill="none" xmlns="http://www.w3.org/2000/svg">
<path d="M15.3659 18.8123C19.0478 18.8123 22.0326 15.8276 22.0326 12.1457C22.0326 8.46377 19.0478 5.479 15.3659 5.479C11.684 5.479 8.69922 8.46377 8.69922 12.1457C8.69922 15.8276 11.684 18.8123 15.3659 18.8123Z" stroke="#F66035" stroke-width="2" stroke-linecap="round" stroke-linejoin="round"/>
<path d="M5.36719 35.479V32.1457C5.36719 30.3776 6.06957 28.6819 7.31981 27.4316C8.57005 26.1814 10.2657 25.479 12.0339 25.479H18.7005C20.4686 25.479 22.1643 26.1814 23.4146 27.4316C24.6648 28.6819 25.3672 30.3776 25.3672 32.1457V35.479" stroke="#F66035" stroke-width="2" stroke-linecap="round" stroke-linejoin="round"/>
<path d="M27.0352 5.6958C28.4692 6.06297 29.7402 6.89697 30.6479 8.06632C31.5556 9.23567 32.0482 10.6739 32.0482 12.1541C32.0482 13.6344 31.5556 15.0726 30.6479 16.2419C29.7402 17.4113 28.4692 18.2453 27.0352 18.6125" stroke="#F66035" stroke-width="2" stroke-linecap="round" stroke-linejoin="round"/>
<path d="M35.3672 35.479V32.1457C35.3587 30.6743 34.8637 29.247 33.9593 28.0863C33.0549 26.9257 31.7919 26.0968 30.3672 25.729" stroke="#F66035" stroke-width="2" stroke-linecap="round" stroke-linejoin="round"/>
</svg>
